<svg width="98" height="108" viewBox="0 0 98 108" fill="none" xmlns="http://www.w3.org/2000/svg">
<path d="M2.20569 58.4999C3.4233 58.4999 4.41158 57.4918 4.41158 56.2498C4.41158 37.6377 19.2523 22.4997 37.499 22.4997C55.397 22.4997 61.666 32.8228 66.7042 41.1207C69.6688 46.0033 72.2275 50.2197 76.5245 51.6417C77.7113 52.0287 78.9289 51.3717 79.3038 50.1971C79.6788 49.0136 79.0435 47.7446 77.8877 47.3621C75.1305 46.4486 72.9643 42.8846 70.454 38.7536C65.1379 29.9965 57.8587 18.004 37.499 18.004C16.8216 18.004 0 35.1626 0 56.254C0 57.492 0.988072 58.4999 2.20569 58.4999Z" fill="#0F3DD1"/>
<path d="M4.41115 74.2502C4.74202 74.2502 5.07724 74.1736 5.39942 74.0116C6.48903 73.4537 6.93034 72.1037 6.3877 70.992C5.58926 69.372 4.4157 66.4199 4.4157 65.2501C4.4157 64.0081 3.42742 63 2.2098 63C0.992185 63 0.00390625 64.0081 0.00390625 65.2501C0.00390625 67.8961 2.03775 72.1756 2.44348 73.0082C2.82729 73.7912 3.60816 74.2502 4.41115 74.2502Z" fill="#0F3DD1"/>
<path d="M16.3494 8.80201C17.3509 8.33858 18.2111 7.89751 19.0139 7.46994C22.3094 5.74637 24.6917 4.49994 35.2929 4.49994C47.2176 4.49994 51.6073 6.16044 56.2571 7.92451C57.0998 8.24408 57.9512 8.56808 58.8422 8.87858C59.0761 8.96401 59.3144 9.00008 59.5569 9.00008C60.4745 9.00008 61.3261 8.41515 61.6437 7.47901C62.0408 6.30451 61.4276 5.02644 60.2716 4.62144C59.4157 4.32001 58.604 4.00951 57.7878 3.70343C52.9748 1.88557 48.003 0 35.2842 0C23.6154 0 20.695 1.52993 16.9935 3.4695C16.248 3.86101 15.4583 4.27508 14.5275 4.69801C13.4201 5.20658 12.9261 6.53844 13.4201 7.67244C13.923 8.80644 15.2333 9.31058 16.3494 8.80201Z" fill="#0F3DD1"/>
<path d="M70.9096 30.4333C70.9449 30.4782 74.1035 35.7209 75.1007 38.9339C75.4008 39.888 76.2743 40.4999 77.2051 40.4999C77.4301 40.4999 77.655 40.4638 77.8757 40.3963C79.036 40.0139 79.6757 38.7493 79.3051 37.5657C78.1315 33.8307 74.8095 28.3047 74.6685 28.0752C74.0243 27.0132 72.6611 26.6803 71.6334 27.3372C70.5965 27.9898 70.2699 29.3714 70.9096 30.4333Z" fill="#0F3DD1"/>
<path d="M14.1791 63.0946C12.3924 56.7405 13.1336 50.058 16.2703 44.2711C19.4069 38.484 24.5686 34.2855 30.7979 32.4586C43.4902 28.7866 56.8883 36.2251 60.7132 49.0546C60.7662 49.2301 60.8367 49.3965 60.9339 49.5541C61.2075 50.0221 61.4457 50.4271 69.2895 57.0421C70.2248 57.8342 71.6099 57.6992 72.3954 56.7407C73.1719 55.7822 73.0395 54.3691 72.0998 53.5726C66.7308 49.0457 65.1558 47.6147 64.8074 47.3086C60.1179 32.4046 44.4167 23.8095 29.5935 28.1295C22.2216 30.2895 16.1247 35.2485 12.4145 42.0886C8.70876 48.9286 7.83091 56.8215 9.94395 64.3322C13.5614 77.1616 5.80141 80.7212 3.33082 81.5042C2.16614 81.8777 1.52197 83.1377 1.88386 84.3257C2.17937 85.2886 3.05288 85.9052 3.99256 85.9052C4.20867 85.9052 4.43366 85.8738 4.64997 85.8063C11.3955 83.6551 17.9335 76.4145 14.1791 63.0946Z" fill="#0F3DD1"/>
<path d="M3.26503 26.6762C4.30624 27.3107 5.66055 26.9823 6.30472 25.9202C8.22379 22.6981 17.6603 13.5002 35.2936 13.5002C52.2519 13.5002 64.3179 22.2617 66.4927 25.9202C66.9163 26.6131 67.6398 27.0002 68.381 27.0002C68.7737 27.0002 69.1708 26.8966 69.5281 26.6762C70.5648 26.0282 70.9002 24.6468 70.2693 23.5803C67.2428 18.4952 53.88 9.00024 35.2936 9.00024C15.5338 9.00024 4.94152 19.5258 2.52387 23.5803C1.89748 24.6468 2.22836 26.0282 3.26503 26.6762Z" fill="#0F3DD1"/>
<path d="M58.031 93.3797C58.7986 92.4256 58.6487 91.0127 57.7044 90.2297C46.415 80.9103 34.4374 69.8042 31.1419 58.1132C30.6522 56.3808 30.855 54.5583 31.711 52.9788C32.5669 51.3993 33.9742 50.2608 35.6682 49.7613C37.3712 49.2709 39.1623 49.4734 40.7064 50.3418C42.2549 51.2103 43.371 52.6503 43.8607 54.3828C45.3165 59.5398 50.4693 66.0333 59.6059 74.2322C60.5191 75.0601 60.85 73.8812 61.6573 72.9497C62.4647 72.0182 63.4352 71.6763 62.5176 70.8572C52.0974 61.5017 48.921 56.0568 48.0959 53.1361C47.2842 50.2427 45.418 47.8532 42.8416 46.3996C40.2651 44.9507 37.2961 44.6132 34.455 45.432C31.6183 46.2646 29.2757 48.1635 27.8507 50.796C26.4257 53.424 26.0905 56.4615 26.9021 59.3459C30.5329 72.234 43.1061 83.952 54.9294 93.717C55.3397 94.0545 55.8294 94.2165 56.3148 94.2165C56.9589 94.2167 57.5942 93.9332 58.031 93.3797Z" fill="#0F3DD1"/>
<path d="M39.6211 55.6245C39.2814 54.4275 38.077 53.7345 36.8904 54.0855C35.7214 54.4275 35.0464 55.6785 35.3816 56.871C38.8581 69.2009 52.062 79.4251 60.1002 85.6486V80.4601C52.2955 75.0601 43.2958 65.8801 39.6211 55.6245Z" fill="#0F3DD1"/>
<path d="M30.7798 78.0662C30.4049 76.8826 29.1651 76.2392 28.0048 76.6082C26.8444 76.9862 26.2048 78.2552 26.5754 79.4387C28.4637 85.4598 24.7533 97.2678 19.1727 99.1127C18.0124 99.4951 17.3817 100.764 17.7566 101.948C18.0566 102.897 18.9256 103.505 19.8566 103.505C20.0816 103.505 20.3155 103.469 20.5359 103.397C29.0328 100.58 33.1224 85.5405 30.7798 78.0662Z" fill="#0F3DD1"/>
<path d="M22.6975 60.741C20.7828 51.8715 25.3137 43.434 33.2325 41.1164C41.4117 38.736 49.9923 43.5555 52.3394 51.8985C53.0717 54.486 55.004 57.5235 62.0363 63.9314C62.9452 64.7549 64.3392 64.6783 65.1509 63.7515C65.9625 62.8244 65.8831 61.4025 64.9745 60.5746C58.2997 54.4951 56.9806 52.0786 56.5792 50.6565C53.5527 39.933 42.528 33.7184 32.0194 36.792C21.8285 39.7755 15.9698 50.4854 18.3918 61.7086C22.8476 82.3997 19.5211 87.1875 10.3757 90.1035C9.21106 90.4771 8.56689 91.737 8.92878 92.925C9.2243 93.888 10.0978 94.5045 11.0375 94.5045C11.2536 94.5045 11.4786 94.4731 11.6949 94.4056C24.4577 90.3242 27.2414 81.8371 22.6975 60.741Z" fill="#0F3DD1"/>
<path d="M50.7116 97.6231C48.5189 94.59 45.2058 90 39.7044 90C32.2223 90 31.0444 103.005 30.8856 105.61C30.8062 106.848 31.7326 107.919 32.9503 107.996C32.9943 108 33.0429 108 33.087 108C34.2473 108 35.2134 107.082 35.2883 105.89C35.5706 101.236 37.3089 94.4999 39.7044 94.4999C42.9735 94.4999 45.2985 97.7129 47.1557 100.291C47.8969 101.317 48.563 102.222 49.1718 102.839C50.032 103.716 51.4306 103.716 52.2909 102.839C53.1511 101.961 53.1511 100.534 52.2909 99.6569C51.8146 99.1667 51.2985 98.4377 50.7116 97.6231Z" fill="#0F3DD1"/>
<path d="M93.5886 73.0802H91.3828V68.5802C91.3828 62.3702 86.4417 57.3302 80.3536 57.3302C74.2656 57.3302 69.3245 62.3702 69.3245 68.5802V73.0802H67.1187C64.6923 73.0802 62.707 75.1052 62.707 77.5802V100.08C62.707 102.555 64.6923 104.58 67.1187 104.58H93.5886C96.015 104.58 98.0002 102.555 98.0002 100.08V77.5802C98.0002 75.1052 96.015 73.0802 93.5886 73.0802ZM80.3536 93.3303C77.9272 93.3303 75.942 91.3053 75.942 88.8302C75.942 86.3552 77.9272 84.3302 80.3536 84.3302C82.78 84.3302 84.7653 86.3552 84.7653 88.8302C84.7653 91.3053 82.78 93.3303 80.3536 93.3303ZM87.1917 73.0802H73.5156V68.5802C73.5156 64.7327 76.5817 61.6052 80.3536 61.6052C84.1256 61.6052 87.1917 64.7327 87.1917 68.5802V73.0802Z" fill="#0F3DD1"/>
</svg>
